<?xml version="1.0" encoding="UTF-8"?>
<svg width="16px" height="18px" viewBox="0 0 16 18" version="1.1" xmlns="http://www.w3.org/2000/svg" xmlns:xlink="http://www.w3.org/1999/xlink">
    <!-- Generator: Sketch 49.1 (51147) - http://www.bohemiancoding.com/sketch -->
    <title>地址</title>
    <desc>Created with Sketch.</desc>
    <defs></defs>
    <g id="Page-1" stroke="none" stroke-width="1" fill="none" fill-rule="evenodd">
        <g id="4.人脸对比" transform="translate(-1205.000000, -205.000000)" fill="#28FFBB" fill-rule="nonzero">
            <g id="地址" transform="translate(1205.000000, 205.000000)">
                <path d="M7.90902772,0.0797431782 C3.56350575,0.0797431782 0.026659644,3.36693419 0.026659644,7.40725522 C0.035546192,11.1197432 2.16831771,13.7069663 3.96340041,15.2220867 C5.71405037,16.7017657 7.49135997,17.4814767 7.82016224,17.614382 L7.82016224,17.6852648 L7.94457392,17.6409631 C7.96234701,17.6321027 9.90850103,16.8701124 11.8279954,15.2398074 C13.605305,13.7335474 15.7469631,11.1463242 15.7913958,7.40725522 C15.7913958,3.36693419 12.2545497,0.0797431782 7.90902772,0.0797431782 Z M10.9837733,14.176565 C10.2284168,14.8233708 9.40196779,15.381573 8.52219954,15.8600321 C8.31780893,15.9752167 8.11341833,16.0726806 7.90902772,16.1701445 C6.80709577,15.6385233 5.7762562,14.9739968 4.83428211,14.176565 C2.55043928,12.245008 1.38630149,9.95903692 1.38630149,7.39839486 C1.38630149,4.11120385 4.30997578,1.43537721 7.90902772,1.43537721 C11.5080797,1.43537721 14.431754,4.11120385 14.431754,7.40725522 C14.3962078,9.97675762 13.23207,12.2538684 10.9837733,14.176565 Z" id="Shape"></path>
                <path d="M7.90014118,4.07576244 C7.89125463,4.07576244 7.89125463,4.07576244 7.88236808,4.07576244 C5.90955442,4.07576244 4.30108923,5.670626 4.29220269,7.64648475 C4.30108923,9.61348315 5.90955442,11.2172071 7.88236808,11.2172071 C7.89125463,11.2172071 7.89125463,11.2172071 7.90014118,11.2172071 C8.85100181,11.2172071 9.75742971,10.8450722 10.4328074,10.1716854 C11.108185,9.49829856 11.4903066,8.60340289 11.4903066,7.64648475 C11.4903066,6.68956661 11.108185,5.79467095 10.4328074,5.12128411 C9.75742971,4.43903692 8.85988836,4.07576244 7.90014118,4.07576244 Z M10.1306647,7.64648475 C10.1217782,8.86921348 9.1264848,9.86157303 7.90014118,9.85271268 C7.90014118,9.85271268 7.89125463,9.85271268 7.89125463,9.85271268 C6.65602446,9.85271268 5.65184453,8.86035313 5.65184453,7.6376244 C5.65184453,7.04398074 5.89178133,6.48577849 6.30944908,6.06934189 C6.72711684,5.6529053 7.28696936,5.42253612 7.88236808,5.42253612 C7.89125463,5.42253612 7.89125463,5.42253612 7.90014118,5.42253612 C9.1264848,5.43139647 10.1217782,6.42375602 10.1306647,7.64648475 Z" id="Shape"></path>
            </g>
        </g>
    </g>
</svg>