<?xml version="1.0" encoding="UTF-8"?>
<svg width="18px" height="17px" viewBox="0 0 18 17" version="1.1" xmlns="http://www.w3.org/2000/svg" xmlns:xlink="http://www.w3.org/1999/xlink">
    <!-- Generator: Sketch 49.1 (51147) - http://www.bohemiancoding.com/sketch -->
    <title>详情 反白</title>
    <desc>Created with Sketch.</desc>
    <defs></defs>
    <g id="Page-1" stroke="none" stroke-width="1" fill="none" fill-rule="evenodd">
        <g id="4.人脸对比" transform="translate(-601.000000, -205.000000)" fill="#FFFFFF" fill-rule="nonzero">
            <g id="详情-反白" transform="translate(601.000000, 205.000000)">
                <path d="M8.52376437,16.9723792 C3.83479033,16.9723792 0.0200673134,13.1689211 0.0200673134,8.4938499 C0.0200673134,3.81869755 3.83476998,0.0152191894 8.52376437,0.0152191894 C13.2126367,0.0152191894 17.0273597,3.81867725 17.0273597,8.4938499 C17.0273597,13.1689008 13.2126163,16.9723792 8.52376437,16.9723792 Z M8.52376437,0.902639978 C4.32556436,0.902639978 0.91015239,4.30798434 0.91015239,8.49382961 C0.91015239,12.6795734 4.32556436,16.0849381 8.52376437,16.0849381 C12.721883,16.0849381 16.1373153,12.6795937 16.1373153,8.49382961 C16.1373153,4.30800463 12.7219033,0.902639978 8.52376437,0.902639978 Z" id="Shape"></path>
                <polygon id="Shape" points="10.1138039 8.4658263 6.75940791 11.8103345 7.38057878 12.4296743 11.3561659 8.46580601 7.38057878 4.50193769 6.75940791 5.12127753"></polygon>
            </g>
        </g>
    </g>
</svg>