<?xml version="1.0" encoding="UTF-8"?>
<svg width="16px" height="16px" viewBox="0 0 16 16" version="1.1" xmlns="http://www.w3.org/2000/svg" xmlns:xlink="http://www.w3.org/1999/xlink">
    <!-- Generator: Sketch 49.1 (51147) - http://www.bohemiancoding.com/sketch -->
    <title>所属库</title>
    <desc>Created with Sketch.</desc>
    <defs></defs>
    <g id="Page-1" stroke="none" stroke-width="1" fill="none" fill-rule="evenodd">
        <g id="4.1人脸对比-详情" transform="translate(-920.000000, -482.000000)" fill="#28FFBB" fill-rule="nonzero">
            <g id="所属库" transform="translate(920.000000, 482.000000)">
                <path d="M9.82319111,0 L6.17874667,0 C5.65178468,0.0254312091 5.24450977,0.472042913 5.26763556,0.999111109 L5.26763556,14.9715556 C5.24451816,15.4984637 5.65192247,15.9448199 6.17874667,15.9697778 L9.82319111,15.9697778 C10.3500153,15.9448199 10.7574196,15.4984637 10.7343022,14.9715556 L10.7343022,0.999111109 C10.7584227,0.471682854 10.3506031,0.0244737927 9.82319111,0 Z M8.91208,13.9751111 L7.08985778,13.9751111 L7.08985778,12.9777778 L8.91119111,12.9777778 L8.91119111,13.976 L8.91208,13.9751111 Z M8.91208,11.9777778 L7.08985778,11.9777778 L7.08985778,10.9795556 L8.91119111,10.9795556 L8.91119111,11.9777778 L8.91208,11.9777778 Z M8.91208,9.98133333 L7.08985778,9.98133333 L7.08985778,8.98222222 L8.91119111,8.98222222 L8.91119111,9.98133333 L8.91208,9.98133333 Z M8.91208,7.98666667 L7.08985778,7.98666667 L7.08985778,6.98755556 L8.91119111,6.98755556 L8.91119111,7.98666667 L8.91208,7.98666667 Z M3.19474667,7.07022222 C3.24209483,7.07259256 3.2792504,7.11170369 3.27919111,7.15911111 L3.27919111,14.9813333 C3.2792504,15.0287407 3.24209483,15.0678519 3.19474667,15.0702222 L0.926302219,15.0702222 C0.878954057,15.0678519 0.841798486,15.0287407 0.841857781,14.9813333 L0.841857781,7.15911111 C0.841798486,7.11170369 0.878954057,7.07259256 0.926302219,7.07022222 L3.19474667,7.07022222 Z M3.19474667,6.14844444 L0.926302219,6.14844444 C0.393541575,6.17671511 -0.018211021,6.62683467 0.000968890625,7.16 L0.000968890625,14.9822222 C-0.0217054353,15.5177673 0.391023345,15.9717294 0.926302219,16 L3.19474667,16 C3.72858414,15.9717267 4.14075365,15.5199635 4.12008,14.9857778 L4.12008,7.16355556 C4.14075366,6.6293698 3.72858414,6.17760666 3.19474667,6.14933333 L3.19474667,6.14844444 Z M15.0756356,5.17066667 L15.0756356,14.9928889 L12.8054133,14.9928889 L12.8054133,5.17066667 L15.0738578,5.17066667 L15.0756356,5.17066667 Z M15.0738578,4.15822222 L12.80808,4.15822222 C12.2742425,4.18649556 11.862073,4.63825868 11.8827467,5.17244444 L11.8827467,14.9928889 C11.8660435,15.5243518 12.2771061,15.9717426 12.80808,16 L15.0765244,16 C15.6100091,15.9712593 16.0216558,15.5196354 16.0009689,14.9857778 L16.0009689,5.16533333 C16.0250883,4.62989416 15.6110364,4.17606776 15.0756356,4.15111111 L15.0738578,4.15822222 Z" id="Shape"></path>
            </g>
        </g>
    </g>
</svg>