<?xml version="1.0" encoding="UTF-8"?>
<svg width="14px" height="16px" viewBox="0 0 14 16" version="1.1" xmlns="http://www.w3.org/2000/svg" xmlns:xlink="http://www.w3.org/1999/xlink">
    <!-- Generator: Sketch 49.1 (51147) - http://www.bohemiancoding.com/sketch -->
    <title>姓名</title>
    <desc>Created with Sketch.</desc>
    <defs></defs>
    <g id="Page-1" stroke="none" stroke-width="1" fill="none" fill-rule="evenodd">
        <g id="4.1人脸对比-详情" transform="translate(-777.000000, -482.000000)" fill="#28FFBB" fill-rule="nonzero">
            <g id="姓名" transform="translate(777.000000, 482.000000)">
                <path d="M10.4489128,4.48989709 C10.4975928,4.51738702 10.5462729,4.54704251 10.5938792,4.57981208 L10.7388635,4.67822819 L10.7415123,4.85177629 C10.7494765,5.35545414 10.6891633,5.78188814 10.556868,6.10992394 C10.4351678,6.41041611 10.2552841,6.63475615 10.0140313,6.77020134 C9.85002237,7.35638479 9.65743177,7.89922148 9.38441163,8.35525727 C9.07019239,8.88012528 8.6553736,9.2843132 8.06915436,9.50120805 C7.8067651,9.5975481 7.13696644,9.64196868 6.49252796,9.63244743 C5.87037136,9.62290828 5.24606711,9.56153915 4.99846085,9.44728412 C4.46514541,9.20177181 4.09057718,8.78911857 3.80699776,8.27484564 C3.56363311,7.8356868 3.39008501,7.32465324 3.2387651,6.78500224 C2.98906488,6.65481879 2.80178971,6.43153468 2.67584787,6.12894855 C2.53777181,5.79880089 2.47479195,5.3649217 2.48327517,4.85175839 L2.48538702,4.67715436 L2.63035347,4.57979418 C2.66643195,4.55502963 2.70350366,4.53174414 2.74147651,4.50999553 C2.57850559,2.49209843 2.63989262,1.74614765 3.38906488,0.893261745 C4.85036242,-0.303480984 8.20039374,-0.261154362 9.68075168,0.823463087 C10.6891454,1.77578523 10.758962,2.84239821 10.4489128,4.48989709 Z M7.3803132,10.3255123 L7.40146756,10.7879374 L7.12792841,11.2397673 L7.50938702,13.7475615 L9.07438031,10.3848233 L11.4567875,10.3033557 C12.6868725,11.467311 13.4762595,14.2089306 13.282094,15.9971902 L0.00400894855,15.9971902 C0.0368143177,14.4268993 0.325691275,11.744519 1.88961074,10.3805638 L4.04187919,10.4006622 L6.05762864,13.7263893 L6.43645638,11.2397673 L6.16239821,10.7879374 L6.18357047,10.3255123 C6.705217,10.2969664 6.85864877,10.2969664 7.3803132,10.3255123 Z M9.16272036,3.7735481 C8.21625056,3.95871141 6.806783,4.1205906 5.69258166,3.4941745 C5.26403579,3.25295749 4.63654586,3.7470962 4.12336465,3.69632215 C3.96411633,4.01165101 3.84506488,4.35661745 3.77630425,4.72164653 L3.71915884,5.02428635 L3.41438926,4.99464877 C3.35831767,4.98933333 3.2990604,4.99674273 3.23769128,5.01689485 C3.21018345,5.02534228 3.18267562,5.03697539 3.15514989,5.04964653 C3.1630962,5.38510962 3.21018345,5.6634094 3.29696644,5.87183893 C3.37315436,6.05490828 3.48003579,6.17447875 3.61863087,6.2178613 L3.79638479,6.27291275 L3.84506488,6.45174049 C3.99427293,7.00515436 4.16144966,7.52680089 4.39636689,7.95112304 C4.61435347,8.34580761 4.89370917,8.65898881 5.27994631,8.83676063 C5.44180761,8.91085459 5.95924832,8.95316331 6.49995526,8.96161074 C7.07452349,8.97005817 7.64803579,8.93938255 7.83740492,8.86958389 C8.26281879,8.71189262 8.56966443,8.40819687 8.80773154,8.01034452 C9.06378523,7.58179866 9.24579866,7.03896197 9.405566,6.44322148 L9.4510604,6.27291275 L9.62040268,6.21363758 C9.75423714,6.16599553 9.8584698,6.0442953 9.93252796,5.85918568 C10.0161074,5.65279642 10.0616197,5.37875615 10.0695481,5.04964653 C10.0447069,5.03801342 10.0192931,5.02745414 9.99495302,5.02002685 C9.93571365,4.99992841 9.8775123,4.99042506 9.82247875,4.99361074 L9.52621029,5.01265324 L9.47117673,4.7206264 C9.41022,4.39280217 9.30651625,4.07439223 9.16272036,3.7735481 Z" id="Shape"></path>
            </g>
        </g>
    </g>
</svg>