<?xml version="1.0" encoding="UTF-8"?>
<svg width="14px" height="16px" viewBox="0 0 14 16" version="1.1" xmlns="http://www.w3.org/2000/svg" xmlns:xlink="http://www.w3.org/1999/xlink">
    <!-- Generator: Sketch 49.1 (51147) - http://www.bohemiancoding.com/sketch -->
    <title>地址 </title>
    <desc>Created with Sketch.</desc>
    <defs></defs>
    <g id="Page-1" stroke="none" stroke-width="1" fill="none" fill-rule="evenodd">
        <g id="1.报警详情-弹窗" transform="translate(-362.000000, -450.000000)" fill="#28FFBB" fill-rule="nonzero">
            <g id="地址-" transform="translate(362.000000, 450.000000)">
                <path d="M11.9512596,1.992 C10.6810835,0.76 8.93358014,0 7,0 C5.06641986,0 3.31891648,0.76 2.04874041,1.992 C0.786654628,3.224 0.00189616253,4.928 0.00189616253,6.808 C0.00189616253,7.816 0.236514673,8.76 0.649119639,9.616 C1.09408578,10.536 1.74130926,11.352 2.50179684,12.032 L6.64402709,15.688 L7,16 L7.35597291,15.688 L11.4901129,12.032 C12.2506005,11.36 12.8978239,10.544 13.3427901,9.616 C13.755395,8.76 13.9900135,7.816 13.9900135,6.808 C13.9981038,4.928 13.2133454,3.224 11.9512596,1.992 Z M8.94167043,9.296 C8.44007223,9.776 7.75239729,10.08 7,10.08 C6.24760271,10.08 5.55183747,9.784 5.05832957,9.296 C4.56482167,8.808 4.24930023,8.144 4.24930023,7.408 C4.24930023,6.672 4.55673138,6 5.05832957,5.52 C5.55183747,5.04 6.23951242,4.736 7,4.736 C7.76048758,4.736 8.44816253,5.032 8.94167043,5.52 C9.43517833,6.008 9.75069977,6.672 9.75069977,7.408 C9.75069977,8.144 9.44326862,8.816 8.94167043,9.296 Z" id="Shape"></path>
            </g>
        </g>
    </g>
</svg>