<?xml version="1.0" encoding="UTF-8"?>
<svg width="16px" height="16px" viewBox="0 0 16 16" version="1.1" xmlns="http://www.w3.org/2000/svg" xmlns:xlink="http://www.w3.org/1999/xlink">
    <!-- Generator: Sketch 49.1 (51147) - http://www.bohemiancoding.com/sketch -->
    <title>所属库</title>
    <desc>Created with Sketch.</desc>
    <defs></defs>
    <g id="Page-1" stroke="none" stroke-width="1" fill="none" fill-rule="evenodd">
        <g id="1.报警详情-弹窗" transform="translate(-816.000000, -450.000000)" fill="#28FFBB" fill-rule="nonzero">
            <g id="所属库" transform="translate(816.000000, 450.000000)">
                <path d="M9.81360751,0 L6.17271863,0 C5.64627075,0.0254312091 5.23939318,0.472042913 5.26249641,0.999111109 L5.26249641,14.9715556 C5.23940156,15.4984637 5.6464084,15.9448199 6.17271863,15.9697778 L9.81360751,15.9697778 C10.3399177,15.9448199 10.7469246,15.4984637 10.7238297,14.9715556 L10.7238297,0.999111109 C10.7479267,0.471682854 10.3405049,0.0244737927 9.81360751,0 Z M8.90338529,13.9751111 L7.08294085,13.9751111 L7.08294085,12.9777778 L8.90249726,12.9777778 L8.90249726,13.976 L8.90338529,13.9751111 Z M8.90338529,11.9777778 L7.08294085,11.9777778 L7.08294085,10.9795556 L8.90249726,10.9795556 L8.90249726,11.9777778 L8.90338529,11.9777778 Z M8.90338529,9.98133333 L7.08294085,9.98133333 L7.08294085,8.98222222 L8.90249726,8.98222222 L8.90249726,9.98133333 L8.90338529,9.98133333 Z M8.90338529,7.98666667 L7.08294085,7.98666667 L7.08294085,6.98755556 L8.90249726,6.98755556 L8.90249726,7.98666667 L8.90338529,7.98666667 Z M3.19162985,7.07022222 C3.23893181,7.07259256 3.27605114,7.11170369 3.2759919,7.15911111 L3.2759919,14.9813333 C3.27605114,15.0287407 3.23893181,15.0678519 3.19162985,15.0702222 L0.925398509,15.0702222 C0.878096541,15.0678519 0.84097722,15.0287407 0.841036457,14.9813333 L0.841036457,7.15911111 C0.84097722,7.11170369 0.878096541,7.07259256 0.925398509,7.07022222 L3.19162985,7.07022222 Z M3.19162985,6.14844444 L0.925398509,6.14844444 C0.393157632,6.17671511 -0.0181932542,6.62683467 0.000967945366,7.16 L0.000967945366,14.9822222 C-0.0216842593,15.5177673 0.390641859,15.9717294 0.925398509,16 L3.19162985,16 C3.72494649,15.9717267 4.13671389,15.5199635 4.11606041,14.9857778 L4.11606041,7.16355556 C4.1367139,6.6293698 3.7249465,6.17760666 3.19162985,6.14933333 L3.19162985,6.14844444 Z M15.0609276,5.17066667 L15.0609276,14.9928889 L12.7929202,14.9928889 L12.7929202,5.17066667 L15.0591516,5.17066667 L15.0609276,5.17066667 Z M15.0591516,4.15822222 L12.7955843,4.15822222 C12.2622677,4.18649556 11.8505003,4.63825868 11.8711537,5.17244444 L11.8711537,14.9928889 C11.8544669,15.5243518 12.2651284,15.9717426 12.7955843,16 L15.0618156,16 C15.5947798,15.9712593 16.0060249,15.5196354 15.9853582,14.9857778 L15.9853582,5.16533333 C16.0094541,4.62989416 15.5958061,4.17606776 15.0609276,4.15111111 L15.0591516,4.15822222 Z" id="Shape"></path>
            </g>
        </g>
    </g>
</svg>