<?xml version="1.0" encoding="UTF-8"?>
<svg width="26px" height="21px" viewBox="0 0 26 21" version="1.1" xmlns="http://www.w3.org/2000/svg" xmlns:xlink="http://www.w3.org/1999/xlink">
    <!-- Generator: Sketch 49.1 (51147) - http://www.bohemiancoding.com/sketch -->
    <title>以图搜图 亮</title>
    <desc>Created with Sketch.</desc>
    <defs></defs>
    <g id="Page-1" stroke="none" stroke-width="1" fill="none" fill-rule="evenodd">
        <g id="2.人体查询" transform="translate(-2475.000000, -123.000000)" fill="#28FFBB" fill-rule="nonzero">
            <g id="以图搜图-亮" transform="translate(2475.000000, 123.000000)">
                <path d="M25.99487,18.6213632 C25.99487,19.8227265 25.0117668,20.7871749 23.8365202,20.7871749 L2.16347982,20.7871749 C0.962116592,20.7871749 0.00513004484,19.8003408 0.00513004484,18.6213632 L0.00513004484,2.18096861 C0.00513004484,0.981470852 0.988233184,0.0244843049 2.16347982,0.0244843049 L23.8122691,0.0244843049 C25.0099013,0.0244843049 25.9668879,1.00758744 25.9668879,2.18096861 L25.9668879,18.6213632 L25.99487,18.6213632 Z M2.16347982,1.72579372 C1.92469955,1.72579372 1.73255605,1.91793722 1.73255605,2.15671749 L1.73255605,18.6213632 C1.73255605,18.8638744 1.92469955,19.0541525 2.16347982,19.0541525 L23.8122691,19.0541525 C24.0510493,19.0541525 24.2413274,18.862009 24.2413274,18.6213632 L24.2413274,2.18096861 C24.2413274,1.94218834 24.0491839,1.75004484 23.8122691,1.75004484 L2.16347982,1.75004484 L2.16347982,1.72579372 Z M6.07164126,8.67653812 C4.63336323,8.67653812 3.48236771,7.52740807 3.48236771,6.08913004 C3.48236771,4.64898655 4.63149776,3.47373991 6.07164126,3.47373991 C7.50991928,3.47373991 8.66278027,4.6266009 8.66278027,6.06487892 C8.66278027,7.50315695 7.50991928,8.67653812 6.07164126,8.67653812 Z M22.5194978,17.3304574 L3.48236771,17.3304574 L3.48236771,14.7206637 L7.82145291,10.3834439 L9.97980269,12.5380628 L16.9044305,5.63582063 L22.5418834,11.2676771 L22.5418834,17.3360538 L22.5157668,17.3360538 L22.5157668,17.3304574 L22.5194978,17.3304574 Z" id="Shape"></path>
            </g>
        </g>
    </g>
</svg>