<?xml version="1.0" encoding="UTF-8"?>
<svg width="24px" height="24px" viewBox="0 0 24 24" version="1.1" xmlns="http://www.w3.org/2000/svg" xmlns:xlink="http://www.w3.org/1999/xlink">
    <!-- Generator: Sketch 49.1 (51147) - http://www.bohemiancoding.com/sketch -->
    <title>人脸碰撞 亮</title>
    <desc>Created with Sketch.</desc>
    <defs></defs>
    <g id="Page-1" stroke="none" stroke-width="1" fill="none" fill-rule="evenodd">
        <g id="2.人体查询" transform="translate(-2365.000000, -911.000000)" fill="#28FFBB" fill-rule="nonzero">
            <g id="人脸碰撞-亮" transform="translate(2365.000000, 911.000000)">
                <path d="M14.055,0.135 C10.425,0.135 7.095,2.145 5.37,5.385 C2.13,7.11 0.12,10.425 0.12,14.07 C0.12,19.47 4.515,23.88 9.93,23.88 C13.56,23.88 16.89,21.87 18.615,18.63 C21.855,16.905 23.865,13.59 23.865,9.945 C23.85,4.53 19.455,0.135 14.055,0.135 Z M14.85,5.64 C14.775,5.58 14.715,5.565 14.655,5.55 C14.625,5.535 14.595,5.52 14.58,5.505 C14.565,5.49 14.55,5.49 14.535,5.475 L14.175,5.28 C12.855,4.62 11.4,4.29 9.825,4.29 L9.21,4.29 C8.865,4.32 8.52,4.365 8.16,4.425 L8.31,4.275 C9.075,3.51 9.945,2.925 10.86,2.565 C11.895,2.13 12.9,1.92 14.01,1.92 C15.09,1.92 16.14,2.13 17.145,2.55 C18.195,3.015 19.005,3.555 19.71,4.26 C20.475,5.025 21.06,5.895 21.42,6.81 C21.855,7.845 22.065,8.85 22.065,9.96 C22.065,11.04 21.855,12.09 21.435,13.095 C20.97,14.145 20.43,14.955 19.74,15.645 C19.695,15.675 19.635,15.705 19.575,15.75 C19.635,15.405 19.665,15.06 19.71,14.625 L19.71,14.025 C19.68,10.56 17.88,7.41 14.85,5.64 Z M8.04,17.64 L8.145,17.745 C8.16,17.76 8.19,17.79 8.205,17.79 L8.205,17.835 L8.28,17.88 C8.37,17.925 8.415,17.97 8.52,18.075 L8.55,18.09 C10.185,19.14 12.03,19.68 13.89,19.68 L14.505,19.68 C14.91,19.635 15.33,19.59 15.75,19.515 C15.705,19.575 15.645,19.635 15.585,19.695 C14.82,20.46 13.95,21.045 13.035,21.405 C12,21.84 10.995,22.05 9.885,22.05 C8.805,22.05 7.755,21.84 6.75,21.42 C5.7,20.955 4.89,20.415 4.185,19.71 C3.42,18.945 2.835,18.075 2.475,17.16 C2.04,16.125 1.83,15.12 1.83,14.01 C1.83,12.93 2.04,11.88 2.46,10.875 C2.925,9.825 3.465,9.015 4.17,8.31 L4.32,8.16 C4.275,8.475 4.23,8.82 4.185,9.225 L4.185,9.825 C4.185,12.87 5.595,15.72 8.04,17.64 Z" id="Shape"></path>
            </g>
        </g>
    </g>
</svg>