<?xml version="1.0" encoding="UTF-8"?>
<svg width="24px" height="24px" viewBox="0 0 24 24" version="1.1" xmlns="http://www.w3.org/2000/svg" xmlns:xlink="http://www.w3.org/1999/xlink">
    <!-- Generator: Sketch 49.1 (51147) - http://www.bohemiancoding.com/sketch -->
    <title>导出</title>
    <desc>Created with Sketch.</desc>
    <defs></defs>
    <g id="Page-1" stroke="none" stroke-width="1" fill="none" fill-rule="evenodd">
        <g id="导出" fill="#28FFBB" fill-rule="nonzero">
            <path d="M23.4944208,14.0284088 L23.4944208,19.4432746 C23.4944208,21.9604864 21.3910152,24 18.7949466,24 L4.69947417,24 C2.10340558,24 0,21.9604864 0,19.4432746 L0,5.77023792 C0,3.25302615 2.10340558,1.21351252 4.69947417,1.21351252 L7.04773621,1.21351252 L7.04773621,3.49044499 L5.48124482,3.49044499 C3.75249915,3.49044499 2.34826205,4.84916725 2.34826205,6.52826192 L2.34826205,18.6795297 C2.34826205,20.3557639 3.74954907,21.7173466 5.48124482,21.7173466 L18.0131759,21.7173466 C19.7419216,21.7173466 21.1461587,20.3586243 21.1461587,18.6795297 L21.1461587,14.0284088 L23.4944208,14.0284088 Z M17.0232389,0.403325977 C16.4686242,-0.134441992 15.5570501,-0.134441992 15.0024355,0.403325977 L8.34705961,6.85654161 C7.79244496,7.39430958 7.97829987,7.83482164 8.76597068,7.83482164 L13.7604526,7.83482164 C13.813554,9.2650556 13.4005431,14.1822 6.37640754,15.2920615 C10.1348068,16.5992954 18.2504713,14.4739677 18.8876881,7.83482164 L23.2626537,7.83482164 C24.0473744,7.83482164 24.2361794,7.39430958 23.6815648,6.85654161 L17.0232389,0.403325977 Z" id="Shape"></path>
        </g>
    </g>
</svg>