<?xml version="1.0" encoding="UTF-8"?>
<svg width="14px" height="14px" viewBox="0 0 14 14" version="1.1" xmlns="http://www.w3.org/2000/svg" xmlns:xlink="http://www.w3.org/1999/xlink">
    <!-- Generator: Sketch 53.1 (72631) - https://sketchapp.com -->
    <title>添加</title>
    <desc>Created with Sketch.</desc>
    <g id="Page-1" stroke="none" stroke-width="1" fill="none" fill-rule="evenodd">
        <g id="2.61v1对比" transform="translate(-346.000000, -640.000000)" fill="#26D39D" fill-rule="nonzero">
            <g id="添加" transform="translate(346.000000, 640.000000)">
                <path d="M6.99966667,0.00166666667 C10.8538889,0.00166666667 13.9827778,3.13055556 13.9898889,6.99188889 C13.9898889,10.8532222 10.861,13.9821111 6.99966667,13.9821111 C3.13833333,13.9821111 0.00944444444,10.8532222 0.00944444444,6.99188889 C0.00944444444,3.13055556 3.13833333,0.00166666667 6.99966667,0.00166666667 Z M6.99966667,13.0434444 C10.3347778,13.0434444 13.0583333,10.327 13.0583333,6.98477778 C13.0583333,3.64255556 10.3418889,0.926111111 6.99966667,0.926111111 C3.65744444,0.926111111 0.941,3.64255556 0.941,6.98477778 C0.941,10.327 3.65744444,13.0434444 6.99966667,13.0434444 Z M10.2565556,6.52255556 C10.5125556,6.52255556 10.7187778,6.72877778 10.7187778,6.98477778 C10.7187778,7.24077778 10.5054444,7.447 10.2494444,7.447 L7.45477778,7.447 L7.45477778,10.2416667 C7.45477778,10.5047778 7.24855556,10.711 6.99255556,10.711 C6.73655556,10.711 6.53033333,10.4976667 6.53033333,10.2416667 L6.53033333,7.447 L3.73566667,7.447 C3.47255556,7.447 3.26633333,7.24077778 3.26633333,6.98477778 C3.26633333,6.72877778 3.47966667,6.52255556 3.73566667,6.52255556 L6.53744444,6.52255556 L6.53744444,3.72788889 C6.53744444,3.46477778 6.74366667,3.25855556 6.99966667,3.25855556 C7.25566667,3.25855556 7.46188889,3.47188889 7.46188889,3.72788889 L7.46188889,6.52255556 L10.2565556,6.52255556 Z" id="合并形状"></path>
            </g>
        </g>
    </g>
</svg>