<?xml version="1.0" encoding="UTF-8"?>
<svg width="22px" height="24px" viewBox="0 0 22 24" version="1.1" xmlns="http://www.w3.org/2000/svg" xmlns:xlink="http://www.w3.org/1999/xlink">
    <!-- Generator: Sketch 49.1 (51147) - http://www.bohemiancoding.com/sketch -->
    <title>人脸研判</title>
    <desc>Created with Sketch.</desc>
    <defs></defs>
    <g id="Page-1" stroke="none" stroke-width="1" fill="none" fill-rule="evenodd" opacity="0.5">
        <g id="1.人脸报警" transform="translate(-59.000000, -470.000000)" fill="#FFFFFF" fill-rule="nonzero">
            <g id="人脸研判" transform="translate(59.000000, 470.000000)">
                <path d="M16.0119403,13.7432836 C16.0119403,13.4447761 16.2507463,13.1940299 16.561194,13.1940299 L17.6477612,13.1940299 C17.958209,13.1940299 18.1970149,13.4328358 18.1970149,13.7432836 L18.1970149,21.4089552 C18.1970149,21.7074627 17.958209,21.958209 17.6477612,21.958209 L16.561194,21.958209 C16.2507463,21.958209 16.0119403,21.719403 16.0119403,21.4089552 C16.0119403,21.4089552 16.0119403,13.7432836 16.0119403,13.7432836 Z M19.3074627,18.1253731 C19.3074627,17.8268657 19.5462687,17.5761194 19.8567164,17.5761194 L20.9432836,17.5761194 C21.2537313,17.5761194 21.4925373,17.8268657 21.4925373,18.1253731 L21.4925373,21.4089552 C21.4925373,21.7074627 21.2537313,21.958209 20.9432836,21.958209 L19.8567164,21.958209 C19.5462687,21.958209 19.3074627,21.7074627 19.3074627,21.4089552 L19.3074627,18.1253731 Z M12.7283582,15.9283582 C12.7283582,15.6298507 12.9671642,15.3791045 13.2776119,15.3791045 L14.3641791,15.3791045 C14.6746269,15.3791045 14.9134328,15.6298507 14.9134328,15.9283582 L14.9134328,21.3970149 C14.9134328,21.6955224 14.6746269,21.9462687 14.3641791,21.9462687 L13.2776119,21.9462687 C12.9671642,21.9462687 12.7283582,21.6955224 12.7283582,21.3970149 C12.7283582,21.4089552 12.7283582,15.9283582 12.7283582,15.9283582 Z" id="Shape"></path>
                <path d="M10.6268657,17.9343284 C10.6268657,15.6059701 11.9641791,13.5880597 13.9223881,12.6208955 C13.8985075,12.6089552 13.8626866,12.5970149 13.838806,12.5731343 C12.6447761,13.3492537 11.2119403,13.8029851 9.65970149,13.8029851 C8.11940299,13.8029851 6.68656716,13.361194 5.49253731,12.5850746 C2.25671642,14.1014925 0.023880597,17.3253731 0.023880597,21.0626866 C0.023880597,23.761194 9.03880597,24.5850746 14.7462687,23.5940299 C12.358209,22.8298507 10.6268657,20.5850746 10.6268657,17.9343284 Z" id="Shape"></path>
                <path d="M5.07462687,10.9014925 C5.67164179,11.4865672 6.3880597,11.9522388 7.1761194,12.2746269 C7.9641791,12.5850746 8.8119403,12.7522388 9.65970149,12.7522388 C10.5074627,12.7522388 11.3552239,12.5850746 12.1432836,12.2746269 C12.9313433,11.9522388 13.6477612,11.4865672 14.2447761,10.9014925 C14.841791,10.3164179 15.319403,9.6119403 15.6537313,8.84776119 C15.9761194,8.08358209 16.1432836,7.25970149 16.1432836,6.4358209 C16.1432836,5.6119403 15.9761194,4.7761194 15.6537313,4.0119403 C15.3313433,3.24776119 14.8537313,2.54328358 14.2447761,1.95820896 C13.6477612,1.37313433 12.9313433,0.907462687 12.1432836,0.585074627 C11.3552239,0.262686567 10.5074627,0.107462687 9.65970149,0.107462687 C8.8119403,0.107462687 7.9641791,0.274626866 7.1761194,0.585074627 C6.3880597,0.895522388 5.67164179,1.37313433 5.07462687,1.95820896 C4.47761194,2.54328358 3.9880597,3.24776119 3.66567164,4.0119403 C3.34328358,4.7880597 3.1761194,5.6119403 3.1761194,6.4358209 C3.1761194,7.25970149 3.34328358,8.08358209 3.66567164,8.84776119 C3.9880597,9.6238806 4.47761194,10.3164179 5.07462687,10.9014925 Z" id="Shape"></path>
            </g>
        </g>
    </g>
</svg>