<?xml version="1.0" encoding="UTF-8"?>
<svg width="24px" height="24px" viewBox="0 0 24 24" version="1.1" xmlns="http://www.w3.org/2000/svg" xmlns:xlink="http://www.w3.org/1999/xlink">
    <!-- Generator: Sketch 49.1 (51147) - http://www.bohemiancoding.com/sketch -->
    <title>人脸报警 亮</title>
    <desc>Created with Sketch.</desc>
    <defs></defs>
    <g id="Page-1" stroke="none" stroke-width="1" fill="none" fill-rule="evenodd">
        <g id="1.人脸报警" transform="translate(-58.000000, -122.000000)" fill="#28FFBB" fill-rule="nonzero">
            <g id="人脸报警-亮" transform="translate(58.000000, 122.000000)">
                <path d="M1.65,2.4 C1.65,1.95 1.95,1.65 2.4,1.65 L5.55,1.65 L5.55,0 L1.65,0 C0.75,0 0,0.75 0,1.65 L0,4.8 L1.65,4.8 L1.65,2.4 Z M1.65,21.6 L1.65,19.2 L0,19.2 L0,22.35 C0,23.25 0.75,24 1.65,24 L5.7,24 L5.7,22.35 L2.4,22.35 C1.95,22.35 1.65,22.05 1.65,21.6 Z M22.35,21.6 C22.35,22.05 22.05,22.35 21.6,22.35 L19.95,22.35 L19.95,24 L22.35,24 C23.25,24 24,23.25 24,22.35 L24,19.2 L22.35,19.2 L22.35,21.6 Z M22.35,0 L19.95,0 L19.95,1.65 L21.6,1.65 C22.05,1.65 22.35,1.95 22.35,2.4 L22.35,4.8 L24,4.8 L24,1.65 C24,0.75 23.25,0 22.35,0 Z M13.95,12.3 C15.3,11.55 16.2,10.2 16.2,8.7 C16.2,6.3 14.4,4.5 12.15,4.5 C9.9,4.5 7.95,6.3 7.95,8.55 C7.95,10.2 8.85,11.55 10.2,12.15 C7.2,12.3 4.95,14.85 4.95,17.85 C4.95,18.45 5.4,18.9 6,18.9 L18.3,18.9 C18.9,18.9 19.35,18.45 19.35,17.85 C19.35,14.85 16.95,12.45 13.95,12.3 Z" id="Shape"></path>
            </g>
        </g>
    </g>
</svg>