<?xml version="1.0" encoding="UTF-8"?>
<svg width="22px" height="26px" viewBox="0 0 22 26" version="1.1" xmlns="http://www.w3.org/2000/svg" xmlns:xlink="http://www.w3.org/1999/xlink">
    <!-- Generator: Sketch 49.1 (51147) - http://www.bohemiancoding.com/sketch -->
    <title>人流量分析</title>
    <desc>Created with Sketch.</desc>
    <defs></defs>
    <g id="Page-1" stroke="none" stroke-width="1" fill="none" fill-rule="evenodd">
        <g id="1.人流量分析" transform="translate(-59.000000, -557.000000)" fill="#28FFBB" fill-rule="nonzero">
            <g id="人流量分析" transform="translate(59.000000, 557.000000)">
                <path d="M9.62124452,6.55280067 C10.2354591,6.74650499 10.8925103,6.75893046 11.5136094,6.58858711 C12.3453779,6.35958637 13.0566518,5.81836176 13.4991304,5.07775866 C13.8086029,4.56046674 13.9716704,3.96879346 13.9708987,3.36599699 C13.9708987,2.96454828 13.8998828,2.57966996 13.770244,2.22305874 C13.3985628,1.20575053 12.5579257,0.430943055 11.5137486,0.143267615 C10.9803537,-0.00309495346 10.4189627,-0.0147218191 9.87996519,0.109430628 C8.75902795,0.366201841 7.85322711,1.18608736 7.47656435,2.2561995 C7.35097307,2.61277142 7.28688917,2.98809301 7.28704937,3.36613623 C7.28704937,3.97812619 7.4523354,4.55126628 7.73960167,5.04461791 C8.15358259,5.75561238 8.82224603,6.30048536 9.62124452,6.55280067 Z M19.3651829,3.90404686 C19.3651829,2.21943833 17.9994497,0.853844351 16.3149804,0.853844351 C15.8163374,0.853844351 15.067607,1.11353975 14.6520944,1.32561272 C15.156168,1.91086728 15.4616756,2.53288301 15.4616756,3.36585774 C15.4616756,4.52675883 15.0088449,5.40972318 14.1104241,6.00876318 C14.6536261,6.50907715 15.5180706,6.95424937 16.3149804,6.95424937 C17.999589,6.95424937 19.3651829,5.58851615 19.3651829,3.90404686 Z M21.0598172,8.92417473 L17.1819314,8.92417473 C17.2139582,9.60926929 17.5024777,15.9837121 16.6220197,17.1281821 L14.9974266,18.6135284 L14.1882631,23.3475039 L14.1602745,24.5565844 L17.9670052,24.5565844 L18.6873292,17.1851341 L20.5514269,16.7192141 C21.3988833,15.6176321 21.0598172,8.92417473 21.0598172,8.92417473 Z" id="Shape"></path>
                <path d="M15.8304013,8.92417473 L15.8274772,8.86610879 L5.47670092,8.86610879 C5.47447297,8.88574259 5.47280201,8.90454092 5.47071331,8.92417473 C4.83463364,14.7317436 5.89444151,17.4066758 5.89444151,17.4066758 L7.22926192,17.7329312 L7.98314444,17.9171548 L8.71948184,25.9238494 L8.7258872,25.9934728 L12.439044,25.9934728 L13.228156,17.9171548 L13.9508472,17.7364124 L15.2704897,17.4065366 C16.1508084,16.2620666 15.8624281,9.60913004 15.8304013,8.92417473 Z M4.91038393,6.95424937 C5.73792803,6.95424937 6.48805088,6.34574059 7.037519,5.8106149 C6.1297687,5.21310661 5.80880469,4.46423699 5.80880469,3.29623431 C5.80880469,2.4936154 6.09189356,1.8966641 6.56338343,1.32059983 C6.15023799,1.11159029 5.40498879,0.853844351 4.91024469,0.853844351 C3.22563615,0.853844351 1.86004218,2.21943833 1.86004218,3.90404686 C1.86018142,5.58851615 3.2257754,6.95424937 4.91038393,6.95424937 Z" id="Shape"></path>
                <path d="M4.55558293,17.3370524 C4.55558293,17.3370524 3.36557925,14.6828679 3.98536703,8.92417473 L0.207878159,8.92417473 C-0.385174226,14.2619247 0.589136067,16.7192141 0.589136067,16.7192141 L2.49542561,17.1851341 L3.17341858,24.5565844 L6.70165556,24.5565844 L6.8464723,22.379042 L6.22640603,18.4046581 L4.55558293,17.3370524 Z" id="Shape"></path>
            </g>
        </g>
    </g>
</svg>